name D:\school\WTK\thesis\model\3dpredictsim\Results\MidTarsalJoint\Fal_s1_bCst_PF_Song2011_ls150_MT_k200_MTP_Mf1_spx10_PIM_w1e+03_w1e+04_ig23.mot
datacolumns 128
datarows 4
range 0.53743748 0.56968373
endheader
time	pelvis_tilt	pelvis_list	pelvis_rotation	pelvis_tx	pelvis_ty	pelvis_tz	hip_flexion_l	hip_adduction_l	hip_rotation_l	hip_flexion_r	hip_adduction_r	hip_rotation_r	knee_angle_l	knee_angle_r	ankle_angle_l	ankle_angle_r	subtalar_angle_l	subtalar_angle_r	mtj_angle_l	mtj_angle_r	mtp_angle_l	mtp_angle_r	lumbar_extension	lumbar_bending	lumbar_rotation	arm_flex_l	arm_add_l	arm_rot_l	arm_flex_r	arm_add_r	arm_rot_r	elbow_flex_l	elbow_flex_r	pro_sup_l	pro_sup_r	glut_med1_l/activation	glut_med2_l/activation	glut_med3_l/activation	glut_min1_l/activation	glut_min2_l/activation	glut_min3_l/activation	semimem_l/activation	semiten_l/activation	bifemlh_l/activation	bifemsh_l/activation	sar_l/activation	add_long_l/activation	add_brev_l/activation	add_mag1_l/activation	add_mag2_l/activation	add_mag3_l/activation	tfl_l/activation	pect_l/activation	grac_l/activation	glut_max1_l/activation	glut_max2_l/activation	glut_max3_l/activation	iliacus_l/activation	psoas_l/activation	quad_fem_l/activation	gem_l/activation	peri_l/activation	rect_fem_l/activation	vas_med_l/activation	vas_int_l/activation	vas_lat_l/activation	med_gas_l/activation	lat_gas_l/activation	soleus_l/activation	tib_post_l/activation	flex_dig_l/activation	flex_hal_l/activation	tib_ant_l/activation	per_brev_l/activation	per_long_l/activation	per_tert_l/activation	ext_dig_l/activation	ext_hal_l/activation	ercspn_l/activation	intobl_l/activation	extobl_l/activation	glut_med1_r/activation	glut_med2_r/activation	glut_med3_r/activation	glut_min1_r/activation	glut_min2_r/activation	glut_min3_r/activation	semimem_r/activation	semiten_r/activation	bifemlh_r/activation	bifemsh_r/activation	sar_r/activation	add_long_r/activation	add_brev_r/activation	add_mag1_r/activation	add_mag2_r/activation	add_mag3_r/activation	tfl_r/activation	pect_r/activation	grac_r/activation	glut_max1_r/activation	glut_max2_r/activation	glut_max3_r/activation	iliacus_r/activation	psoas_r/activation	quad_fem_r/activation	gem_r/activation	peri_r/activation	rect_fem_r/activation	vas_med_r/activation	vas_int_r/activation	vas_lat_r/activation	med_gas_r/activation	lat_gas_r/activation	soleus_r/activation	tib_post_r/activation	flex_dig_r/activation	flex_hal_r/activation	tib_ant_r/activation	per_brev_r/activation	per_long_r/activation	per_tert_r/activation	ext_dig_r/activation	ext_hal_r/activation	ercspn_r/activation	intobl_r/activation	extobl_r/activation	
          0.53743748	         -2.92938975	          0.66260291	         -3.66228436	          0.67179685	          0.92409826	          0.00274076	         25.26676498	          3.02915978	         -0.59645339	        -15.18200142	          1.50340518	          8.50280068	         -6.83794497	        -10.35965501	          2.95417838	         -4.87907862	         -3.80018016	          9.80461415	          0.29439224	          7.65675586	          0.83714377	         13.44293962	         -1.81123810	          0.29537072	          1.60096393	         -4.60289195	        -13.45026438	          8.67449558	          5.02339551	        -13.45913676	         15.44345191	         16.00898973	         28.63785073	         86.51662706	         86.51662706	          0.05895729	          0.05895725	          0.05000011	          0.05895736	          0.05895733	          0.05000311	          0.18344951	          0.08350061	          0.12629601	          0.05000108	          0.05000016	          0.16173686	          0.28734414	          0.13648935	          0.20775946	          0.13219867	          0.05000013	          0.05000334	          0.16710992	          0.05893435	          0.08475846	          0.10153700	          0.05000357	          0.06170427	          0.39918639	          0.18686934	          0.08098970	          0.05000005	          0.05000215	          0.05000153	          0.05000086	          0.05000060	          0.05203001	          0.05000003	          0.08183612	          0.06951959	          0.08197301	          0.45393085	          0.19144969	          0.15020006	          0.15021084	          0.54896175	          0.15009359	          0.05000002	          0.08978409	          0.09230640	          0.32201748	          0.17252976	          0.09665861	          0.31778446	          0.25767412	          0.16207131	          0.05000118	          0.05000012	          0.05000011	          0.05000078	          0.11397229	          0.05000021	          0.05000019	          0.05000026	          0.05000072	          0.05000035	          0.34864229	          0.05000132	          0.05000044	          0.05000171	          0.05000054	          0.05000043	          0.36036238	          0.59887140	          0.05000009	          0.05000065	          0.08197342	          0.24475631	          0.05000094	          0.05000105	          0.05000106	          0.25550586	          0.34938663	          0.31359983	          0.32494098	          0.25306246	          0.32556700	          0.05000002	          0.18991153	          0.18818390	          0.05000024	          0.05000011	          0.05895817	          0.05000002	          0.06060385	          0.09386331	
          0.54818623	         -2.92986317	          0.73392174	         -3.85991692	          0.68791038	          0.92389775	          0.00252395	         24.68786616	          3.38197823	         -0.43331314	        -15.19501695	          1.25412158	          8.42576547	         -7.40485594	        -11.83880192	          2.23387886	         -5.40825855	         -4.08683712	         10.80846780	          0.25405699	          6.19319404	          0.14131580	         16.10171383	         -1.62386217	          0.10770827	          1.65745166	         -5.36338871	        -13.45151335	          8.47692592	          4.75628340	        -13.46852700	         15.70661006	         15.76473285	         29.53268838	         86.51662706	         86.51662706	          0.05000001	          0.05000003	          0.10611509	          0.05000008	          0.05000007	          0.05000007	          0.15557835	          0.07081453	          0.10710808	          0.05000035	          0.06955599	          0.13716452	          0.32985755	          0.29942730	          0.17619658	          0.15160679	          0.05000033	          0.08198492	          0.15118317	          0.05000094	          0.11761297	          0.14229297	          0.05198170	          0.06838523	          0.48278896	          0.15847863	          0.06868514	          0.05895789	          0.05895740	          0.05895745	          0.05895739	          0.06951927	          0.06951939	          0.06951928	          0.06940289	          0.05895763	          0.06951902	          0.54123900	          0.33353541	          0.19873136	          0.12738961	          0.60903177	          0.14852631	          0.05000000	          0.07614333	          0.07828244	          0.27309391	          0.14631760	          0.08197344	          0.26950401	          0.21852613	          0.13744811	          0.05000344	          0.05006779	          0.05895693	          0.05000009	          0.09665677	          0.07752515	          0.05895746	          0.05895775	          0.05895757	          0.05895745	          0.29567374	          0.05397365	          0.05895797	          0.05895839	          0.05895804	          0.05895781	          0.30561311	          0.54277632	          0.06951875	          0.05895937	          0.06951937	          0.20757089	          0.08737379	          0.08830223	          0.08595399	          0.21668725	          0.29630489	          0.26595510	          0.27557320	          0.21461513	          0.27610417	          0.05000001	          0.24488491	          0.17543850	          0.05000002	          0.05000002	          0.05000094	          0.05962060	          0.06951925	          0.08197347	
          0.55893498	         -2.92622384	          0.83730113	         -4.03262619	          0.70425143	          0.92370855	          0.00232327	         24.05612096	          3.63434920	         -0.23930725	        -15.13326745	          0.98418803	          8.32806531	         -8.04497955	        -13.41692750	          1.49530517	         -6.08621559	         -4.35783787	         11.77319932	          0.22918453	          4.58539696	         -0.45430937	         19.03266945	         -1.42099982	         -0.12003910	          1.70478577	         -6.13148932	        -13.46562179	          8.31816929	          4.42569929	        -13.47494013	         15.92762327	         15.54119568	         30.42140082	         86.51662706	         86.51662706	          0.30379539	          0.28182346	          0.30781182	          0.40271260	          0.25473104	          0.26884574	          0.14327090	          0.09910811	          0.10950201	          0.06952010	          0.05898860	          0.11632535	          0.27974285	          0.25393586	          0.14942745	          0.17128327	          0.05000043	          0.06952936	          0.12821459	          0.05000030	          0.15253239	          0.12067481	          0.05895733	          0.05895728	          0.40943960	          0.13440128	          0.08233797	          0.05000053	          0.05000024	          0.05000025	          0.05000019	          0.05895731	          0.05895742	          0.05895732	          0.05885863	          0.05000043	          0.05895722	          0.61792043	          0.33092859	          0.19045701	          0.49165853	          0.70528095	          0.27814718	          0.06627100	          0.11395748	          0.06638911	          0.27564571	          0.12408781	          0.06951935	          0.26332310	          0.18532588	          0.11656586	          0.05000074	          0.05000009	          0.05000008	          0.05000164	          0.08197234	          0.06574699	          0.05000022	          0.05000049	          0.05000061	          0.05000028	          0.25075311	          0.05005479	          0.05000079	          0.05000162	          0.05000091	          0.05000059	          0.25918190	          0.53456651	          0.05895689	          0.05000187	          0.05895743	          0.17603499	          0.07409931	          0.07488669	          0.07289521	          0.18376629	          0.25128776	          0.22554895	          0.23370579	          0.18200901	          0.23415611	          0.05926888	          0.22233079	          0.14878448	          0.26109482	          0.17341489	          0.05000010	          0.07094965	          0.05895730	          0.06951937	
          0.56968373	         -2.92007852	          0.95367303	         -4.17170383	          0.72058852	          0.92359897	          0.00209288	         23.44425257	          3.86802713	         -0.04492510	        -14.92913286	          0.72179326	          8.22365231	         -8.64201670	        -15.18998383	          0.41988565	         -6.96131515	         -4.60472823	         12.70910519	          0.33511391	          2.94710492	         -0.95721327	         22.06639895	         -1.22618433	         -0.36719445	          1.74602477	         -6.85200896	        -13.48071614	          8.19761617	          4.07328719	        -13.48410755	         16.13074112	         15.30392169	         31.26441121	         86.51662706	         86.51662706	          0.41069975	          0.40269275	          0.34817973	          0.34153025	          0.30305894	          0.22800208	          0.12150401	          0.10421795	          0.09286567	          0.05895809	          0.05002661	          0.09865225	          0.23724203	          0.21535635	          0.24388523	          0.21997159	          0.05000024	          0.05896605	          0.10874760	          0.25468495	          0.23423206	          0.22778591	          0.05000007	          0.05000006	          0.34723409	          0.11398195	          0.06982858	          0.05000005	          0.05000165	          0.18522610	          0.12078648	          0.05000003	          0.05000013	          0.05000003	          0.05000000	          0.05000006	          0.05000005	          0.75412251	          0.32112355	          0.18078125	          0.70386429	          0.77765996	          0.44177502	          0.08788928	          0.09664410	          0.05630272	          0.23376731	          0.10523536	          0.05895740	          0.22331688	          0.15716965	          0.09885622	          0.05000490	          0.05000040	          0.05000029	          0.05000014	          0.06951849	          0.16468317	          0.24559670	          0.05000093	          0.05001134	          0.09547775	          0.21265670	          0.05000416	          0.05000086	          0.05000202	          0.05000150	          0.05000145	          0.21980481	          0.49309093	          0.05000015	          0.05000057	          0.05000023	          0.14929028	          0.11650906	          0.11599291	          0.10944111	          0.15584697	          0.21311001	          0.19128165	          0.19819924	          0.15435668	          0.19858115	          0.22478902	          0.18855270	          0.12617993	          0.56954868	          0.23493251	          0.05000005	          0.09682838	          0.05000002	          0.05895741	
